<?xml version="1.0" standalone="no"?><!DOCTYPE svg PUBLIC "-//W3C//DTD SVG 1.1//EN" "http://www.w3.org/Graphics/SVG/1.1/DTD/svg11.dtd"><svg t="1676312006705" class="icon" viewBox="0 0 1024 1024" version="1.1" xmlns="http://www.w3.org/2000/svg" p-id="2715" xmlns:xlink="http://www.w3.org/1999/xlink" width="64" height="64"><path d="M192 0a32 32 0 0 0-32 32v960a32 32 0 0 0 32 32h640a32 32 0 0 0 32-32V32a32 32 0 0 0-32-32H192z m608 960H224V64h576v896z" fill="#8a8a8a" p-id="2716"></path><path d="M320 288h64v64a32 32 0 0 0 64 0V288h64a32 32 0 0 0 0-64h-64V160a32 32 0 0 0-64 0v64h-64a32 32 0 0 0 0 64zM304 480h416a16 16 0 1 0 0-32h-416a16 16 0 1 0 0 32zM304 576h416a16 16 0 1 0 0-32h-416a16 16 0 1 0 0 32zM304 672h416a16 16 0 1 0 0-32h-416a16 16 0 1 0 0 32zM304 768h416a16 16 0 1 0 0-32h-416a16 16 0 1 0 0 32zM304 864h416a16 16 0 1 0 0-32h-416a16 16 0 1 0 0 32z" fill="#8a8a8a" p-id="2717"></path></svg>